<svg width="24" height="20" viewBox="0 0 24 20" fill="none" xmlns="http://www.w3.org/2000/svg">
<path d="M2 8.7208C1.29352 8.7208 0.720796 9.29351 0.720796 10C0.720796 10.7065 1.29351 11.2792 2 11.2792L2 8.7208ZM22.9045 10.9045C23.4041 10.405 23.4041 9.59503 22.9045 9.09547L14.7637 0.954661C14.2642 0.4551 13.4542 0.4551 12.9547 0.95466C12.4551 1.45422 12.4551 2.26417 12.9547 2.76373L20.1909 10L12.9547 17.2363C12.4551 17.7358 12.4551 18.5458 12.9547 19.0453C13.4542 19.5449 14.2642 19.5449 14.7637 19.0453L22.9045 10.9045ZM2 11.2792L22 11.2792L22 8.7208L2 8.7208L2 11.2792Z" fill="white"/>
</svg>
